# AST/ASF file generated using VICON BodyLanguage
# -----------------------------------------------
:version 1.10
:name VICON
:units
  mass 1.0
  length 0.45
  angle deg
:documentation
   .ast/.asf automatically generated from VICON data using
   VICON BodyBuilder and BodyLanguage model FoxedUp or BRILLIANT.MOD
:root
   order TX TY TZ RX RY RZ
   axis XYZ
   position 0 0 0  
   orientation 0 0 0 
:bonedata
  begin
     id 1 
     name lhipjoint
     direction 0.692814 -0.645514 0.321437 
     length 2.38754 
     axis 0 0 0  XYZ
  end
  begin
     id 2 
     name lfemur
     direction 0.34202 -0.939693 0  
     length 6.41921  
     axis 0 0 20  XYZ
    dof rx ry rz
    limits (-160.0 20.0)
           (-70.0 70.0)
           (-60.0 70.0)
  end
  begin
     id 3 
     name ltibia
     direction 0.34202 -0.939693 0   
     length 6.98247   
     axis 0 0 20   XYZ
    dof rx
    limits (-10.0 170.0)
  end
  begin
     id 4 
     name lfoot
     direction 0.0947186 -0.260237 0.960888   
     length 1.83034   
     axis -90 7.62852e-016 20   XYZ
    dof rx rz
    limits (-45.0 90.0)
           (-70.0 20.0)
  end
  begin
     id 5 
     name ltoes
     direction 1.53538e-011 -4.21952e-011 1   
     length 0.920499   
     axis -90 7.62852e-016 20   XYZ
    dof rx
    limits (-90.0 20.0)
  end
  begin
     id 6 
     name rhipjoint
     direction -0.631686 -0.693949 0.345555   
     length 2.2209  
     axis 0 0 0  XYZ 
  end
  begin
     id 7 
     name rfemur
     direction -0.34202 -0.939693 0   
     length 6.49542   
     axis 0 0 -20   XYZ
    dof rx ry rz
    limits (-160.0 20.0)
           (-70.0 70.0)
           (-70.0 60.0)
  end
  begin
     id 8 
     name rtibia
     direction -0.34202 -0.939693 0   
     length 7.21712   
     axis 0 0 -20   XYZ
    dof rx
    limits (-10.0 170.0)
 end
 begin
     id 9 
     name rfoot
     direction -0.0825378 -0.226771 0.970444   
     length 1.89724  
     axis -90 -7.62852e-016 -20   XYZ
    dof rx rz
    limits (-45.0 90.0)
           (-20.0 70.0)
  end
  begin
     id 10 
     name rtoes
     direction -1.53515e-011 -4.22016e-011 1   
     length 0.955868   
     axis -90 -7.62852e-016 -20   XYZ
    dof rx
    limits (-90.0 20.0)
  end
  begin
     id 11 
     name lowerback
     direction -0.0104711 0.984802 -0.173368   
     length 1.84931   
     axis 0 0 0   XYZ
    dof rx ry rz
    limits (-20.0 45.0)
           (-30.0 30.0)
           (-30.0 30.0)
  end
  begin
     id 12 
     name upperback
     direction -0.00286433 0.999996 -0.000382853   
     length 1.85768   
     axis 0 0 0   XYZ
    dof rx ry rz
    limits (-20.0 45.0)
           (-30.0 30.0)
           (-30.0 30.0)
  end
  begin
     id 13 
     name thorax
     direction 0.00167534 0.996793 0.0800069   
     length 1.92   
     axis 0 0 0   XYZ
    dof rx ry rz
    limits (-20.0 45.0)
           (-30.0 30.0)
           (-30.0 30.0)
  end
  begin
     id 14 
     name lowerneck
     direction -0.0672491 0.995415 0.068018   
     length 1.58923   
     axis 0 0 0   XYZ
    dof rx ry rz
    limits (-20.0 45.0)
           (-30.0 30.0)
           (-30.0 30.0)
  end
  begin
     id 15 
     name upperneck
     direction 0.0958019 0.982476 -0.159884   
     length 1.60189   
     axis 0 0 0   XYZ
    dof rx ry rz
    limits (-20.0 45.0)
           (-30.0 30.0)
           (-30.0 30.0)
  end
  begin
     id 16
     name head
     direction 0.032989 0.997338 -0.0650226  
     length 1.61681  
     axis 0 0 0   XYZ
    dof rx ry rz
    limits (-20.0 45.0)
           (-30.0 30.0)
           (-30.0 30.0)
  end
  begin
     id 17 
     name lclavicle
     direction 0.954279 0.298875 -0.00496069  
     length 2.99449  
     axis 0 0 0   XYZ
    dof ry rz
    limits (-20.0 10.0)
           (0.0 20.0)
  end
  begin
     id 18 
     name lhumerus
     direction 1 -4.48985e-011 -4.2057e-027   
     length 4.79185   
     axis 180 -30 -90   XYZ
    dof rx ry rz
    limits (-60.0 90.0)
           (-90.0 90.0)
           (-90.0 90.0)
  end
  begin
     id 19
     name lradius
     direction 1 -4.48945e-011 1.15441e-028   
     length 2.65553   
     axis 180 -30 -90   XYZ
    dof rx
    limits (-10.0 170.0)
  end
  begin
     id 20
     name lwrist
     direction 1 -4.4899e-011 4.8894e-028   
     length 1.32777   
     axis -2.56392e-016 90 90   XYZ
    dof ry
    limits (-180.0 0.0)
 end
  begin
     id 21 
     name lhand
     direction 1 -4.48908e-011 9.7788e-028   
     length 0.743904   
     axis -6.23971e-016 90 90   XYZ
    dof rx rz
    limits (-90.0 90.0)
           (-45.0 45.0)
  end
  begin
     id 22 
     name lfingers
     direction 1 -4.49068e-011 1.95576e-027   
     length 0.599754   
     axis -1.24794e-015 90 90   XYZ
    dof rx
    limits (0.0 90.0)
  end
  begin
     id 23
     name lthumb
     direction 0.707107 -6.34883e-011 0.707107   
     length 0.861131   
     axis -90 45 2.85299e-015   XYZ
    dof rx rz
    limits (-45.0 45.0)
           (-45.0 45.0)
  end
  begin
     id 24 
     name rclavicle
     direction -0.957921 0.286916 0.00811568   
     length 3.06817  
     axis 0 0 0   XYZ 
    dof ry rz
    limits (-10.0 20.0)
           (-20.0 0.0)
  end
  begin
     id 25 
     name rhumerus
     direction -1 -4.48971e-011 -3.07942e-027  
     length 4.77254   
     axis 180 30 90   XYZ
    dof rx ry rz
    limits (-90.0 60.0)
           (-90.0 90.0)
           (-90.0 90.0)
  end
  begin
     id 26 
     name rradius
     direction -1 -4.48957e-011 -9.6815e-028   
     length 2.75995   
     axis 180 30 90   XYZ
    dof rx
    limits (-10.0 170.0)
  end
  begin
     id 27 
     name rwrist
     direction -1 -4.48979e-011 4.8894e-028   
     length 1.37997   
     axis -2.56392e-016 -90 -90   XYZ
    dof ry
    limits (-180.0 0.0)
  end
  begin
     id 28
     name rhand
     direction -1 -4.48906e-011 9.7788e-028   
     length 0.701619   
     axis -6.23971e-016 -90 -90   XYZ
    dof rx rz
    limits (-90.0 90.0)
           (-45.0 45.0)
  end
  begin
     id 29
     name rfingers
     direction -1 -4.49018e-011 1.95576e-027   
     length 0.565663   
     axis -1.24794e-015 -90 -90   XYZ
    dof rx
    limits (0.0 90.0)
  end
  begin
     id 30
     name rthumb
     direction -0.707107 -6.34881e-011 0.707107   
     length 0.812183   
     axis -90 -45 -2.85299e-015   XYZ
    dof rx rz
    limits (-45.0 45.0)
           (-45.0 45.0)
  end
:hierarchy
  begin
    root lhipjoint rhipjoint lowerback
    lhipjoint lfemur
    lfemur ltibia
    ltibia lfoot
    lfoot ltoes
    rhipjoint rfemur
    rfemur rtibia
    rtibia rfoot
    rfoot rtoes
    lowerback upperback
    upperback thorax
    thorax lowerneck lclavicle rclavicle
    lowerneck upperneck
    upperneck head
    lclavicle lhumerus
    lhumerus lradius
    lradius lwrist
    lwrist lhand lthumb
    lhand lfingers
    rclavicle rhumerus
    rhumerus rradius
    rradius rwrist
    rwrist rhand rthumb
    rhand rfingers
  end

#!OML:ASF F:\VICON\USERDATA\INSTALL\rory3\rory3.ASF
:FULLY-SPECIFIED
:DEGREES
117
root 0.240808 16.1196 0.251672 1.11983 0.899028 -0.54809
lowerback 9.39693 -0.00960663 -1.49255
upperback -2.50759 -0.194357 0.056718
thorax -7.92925 -0.0208878 0.931844
lowerneck -12.3257 -8.4123 -12.4001
upperneck 27.4299 -11.6954 8.76041
head 12.3881 -5.53951 3.63948
rclavicle 2.75911e-015 7.35503e-015
rhumerus -39.573 1.04517 -83.7879
rradius 31.5472
rwrist 3.6325
rhand -11.4338 10.1769
rfingers 7.12502
rthumb 14.6025 -19.2891
lclavicle 2.75911e-015 7.35503e-015
lhumerus -34.6426 6.00432 82.7227
lradius 25.9597
lwrist 0.515712
lhand -7.96722 15.7425
lfingers 7.12502
lthumb 17.9404 44.935
rfemur 0.0838157 11.4054 18.1778
rtibia 14.8324
rfoot -12.642 -15.417
rtoes -6.27224
lfemur 4.23774 -12.0437 -16.9558
ltibia 5.35356
lfoot -7.57349 9.0038
ltoes -10.2826
118
root 0.241587 16.1203 0.248845 1.1206 0.912822 -0.549435
lowerback 9.39979 -0.00182482 -1.46937
upperback -2.50632 -0.182374 0.0400389
thorax -7.92994 -0.0166246 0.899241
lowerneck -12.284 -8.41193 -12.4264
upperneck 27.3564 -11.7142 8.85099
head 12.3609 -5.54169 3.6758
rclavicle 4.45518e-015 -3.97569e-016
rhumerus -39.554 0.863958 -83.6727
rradius 31.5162
rwrist 4.05476
rhand -11.2229 10.1393
rfingers 7.12502
rthumb 14.8057 -19.3118
lclavicle 4.45518e-015 -3.97569e-016
lhumerus -34.6499 6.01319 82.6606
lradius 25.7977
lwrist 0.488417
lhand -8.00558 15.6208
lfingers 7.12502
lthumb 17.9035 44.8168
rfemur 0.105425 11.4202 18.1746
rtibia 14.7763
rfoot -12.6133 -15.4421
rtoes -6.16403
lfemur 4.19788 -12.0576 -16.9485
ltibia 5.3985
lfoot -7.63058 8.97738
ltoes -10.1753
119
root 0.243196 16.1196 0.245243 1.13954 0.932395 -0.55133
lowerback 9.39884 -0.00874122 -1.4478
upperback -2.52093 -0.188949 0.0413135
thorax -7.94494 -0.020643 0.889523
lowerneck -12.2849 -8.41099 -12.4773
upperneck 27.3424 -11.7106 8.88913
head 12.3615 -5.54084 3.69919
rclavicle -6.30908e-015 -4.17448e-015
rhumerus -39.5861 0.853927 -83.6174
rradius 31.5659
rwrist 4.22322
rhand -11.2793 10.2177
rfingers 7.12502
rthumb 14.7514 -19.2374
lclavicle -6.30908e-015 -4.17448e-015
lhumerus -34.6747 6.10304 82.5613
lradius 25.5337
lwrist 0.365405
lhand -7.98535 15.14
lfingers 7.12502
lthumb 17.9229 44.3341
rfemur 0.0986483 11.3774 18.1603
rtibia 14.7286
rfoot -12.4855 -15.4667
rtoes -6.21764
lfemur 4.14331 -12.0759 -16.9427
ltibia 5.42814
lfoot -7.64477 8.95574
ltoes -10.1241
120
root 0.243389 16.1195 0.242819 1.13788 0.955628 -0.552595
lowerback 9.41629 -0.0153103 -1.43939
upperback -2.53843 -0.197896 0.0312697
thorax -7.97367 -0.0253665 0.875711
lowerneck -12.3221 -8.41821 -12.4754
upperneck 27.3848 -11.7198 8.88378
head 12.387 -5.54409 3.69458
rclavicle -1.18371e-014 -1.33186e-014
rhumerus -39.6287 0.732068 -83.5112
rradius 31.6303
rwrist 4.73403
rhand -11.4969 10.214
rfingers 7.12502
rthumb 14.5418 -19.2563
lclavicle -1.18371e-014 -1.33186e-014
lhumerus -34.7442 6.16792 82.4305
lradius 25.2875
lwrist 0.0271359
lhand -7.99287 14.8116
lfingers 7.12502
lthumb 17.9157 44.0064
rfemur 0.0934164 11.3177 18.153
rtibia 14.7246
rfoot -12.4687 -15.4333
rtoes -6.14047
lfemur 4.17269 -12.0992 -16.9426
ltibia 5.35697
lfoot -7.63326 8.98652
ltoes -10.1111
121
root 0.243193 16.1203 0.240906 1.14175 0.961341 -0.595472
lowerback 9.40695 -0.0106202 -1.39129
upperback -2.55518 -0.186018 0.0258324
thorax -7.98664 -0.0218909 0.840955
lowerneck -12.3218 -8.42698 -12.4452
upperneck 27.4053 -11.738 8.86964
head 12.3942 -5.55075 3.68135
rclavicle -2.32359e-015 3.77691e-015
rhumerus -39.6783 0.626408 -83.4398
rradius 31.6434
rwrist 5.06057
rhand -11.6858 10.2057
rfingers 7.12502
rthumb 14.3598 -19.2776
lclavicle -2.32359e-015 3.77691e-015
lhumerus -34.8198 6.27648 82.2466
lradius 24.9908
lwrist -0.437658
lhand -8.12079 14.4294
lfingers 7.12502
lthumb 17.7926 43.6354
rfemur 0.0775854 11.3084 18.2001
rtibia 14.7481
rfoot -12.5477 -15.4201
rtoes -6.06092
lfemur 4.21574 -12.1045 -16.8893
ltibia 5.24317
lfoot -7.51569 9.04494
ltoes -10.0167
122
root 0.243519 16.1206 0.237857 1.14092 0.963636 -0.512287
lowerback 9.4185 -0.0126056 -1.48133
upperback -2.56119 -0.202487 -0.00424207
thorax -7.99938 -0.0262049 0.862589
lowerneck -12.3272 -8.41284 -12.4028
upperneck 27.4055 -11.7178 8.83945
head 12.3873 -5.54085 3.66611
rclavicle -8.38515e-015 -1.17283e-014
rhumerus -39.6897 0.665022 -83.445
rradius 31.6261
rwrist 5.05235
rhand -11.7172 10.1539
rfingers 7.12502
rthumb 14.3295 -19.3316
lclavicle -8.38515e-015 -1.17283e-014
lhumerus -34.8428 6.43179 82.0783
lradius 24.7098
lwrist -0.736991
lhand -8.29812 14.0886
lfingers 7.12502
lthumb 17.622 43.3101
rfemur 0.0650629 11.3149 18.102
rtibia 14.7582
rfoot -12.5842 -15.3794
rtoes -5.82286
lfemur 4.23987 -12.1082 -16.9809
ltibia 5.18106
lfoot -7.42063 9.11185
ltoes -10.152
123
root 0.242726 16.1216 0.233508 1.18044 0.965648 -0.42555
lowerback 9.39952 -0.0134133 -1.60302
upperback -2.5791 -0.219428 -0.0148903
thorax -8.0071 -0.0286224 0.922569
lowerneck -12.2884 -8.39433 -12.4259
upperneck 27.365 -11.6951 8.86948
head 12.3639 -5.53106 3.68617
rclavicle -5.7088e-015 -1.39149e-015
rhumerus -39.6589 0.636147 -83.383
rradius 31.5508
rwrist 5.08966
rhand -11.4847 10.0762
rfingers 7.12502
rthumb 14.5535 -19.3933
lclavicle -5.7088e-015 -1.39149e-015
lhumerus -34.8504 6.45529 82.0171
lradius 24.5216
lwrist -0.887764
lhand -8.44539 13.9498
lfingers 7.12502
lthumb 17.4802 43.1838
rfemur -0.00437077 11.3083 17.9981
rtibia 14.7692
rfoot -12.5626 -15.3952
rtoes -5.95802
lfemur 4.21619 -12.1102 -17.056
ltibia 5.10893
lfoot -7.4217 9.0762
ltoes -10.2579
124
root 0.242845 16.1219 0.229491 1.20479 0.969797 -0.466026
lowerback 9.37902 -0.000251855 -1.54972
upperback -2.58106 -0.194207 -0.00711948
thorax -7.99806 -0.0188016 0.89662
lowerneck -12.2204 -8.39884 -12.4559
upperneck 27.2667 -11.702 8.90038
head 12.3159 -5.53603 3.70256
rclavicle 3.68759e-015 -3.97569e-016
rhumerus -39.6329 0.554322 -83.292
rradius 31.5326
rwrist 5.11395
rhand -11.0234 9.78929
rfingers 7.12502
rthumb 14.9979 -19.6476
lclavicle 3.68759e-015 -3.97569e-016
lhumerus -34.8644 6.27252 82.0611
lradius 24.5605
lwrist -0.711025
lhand -8.4452 14.1297
lfingers 7.12502
lthumb 17.4804 43.3637
rfemur -0.0717044 11.348 18.0396
rtibia 14.807
rfoot -12.5584 -15.4573
rtoes -5.88315
lfemur 4.26161 -12.1128 -17.0039
ltibia 4.92162
lfoot -7.32743 9.04914
ltoes -10.4115
125
root 0.242215 16.1222 0.226065 1.19557 0.988814 -0.465478
lowerback 9.42871 0.0152628 -1.5389
upperback -2.59449 -0.174395 -0.0234313
thorax -8.0419 -0.00969343 0.870272
lowerneck -12.1712 -8.40752 -12.4617
upperneck 27.194 -11.7258 8.94474
head 12.2834 -5.54388 3.71705
rclavicle -3.69581e-015 -6.36111e-015
rhumerus -39.6823 0.544747 -83.2859
rradius 31.5361
rwrist 4.90469
rhand -10.9827 9.76064
rfingers 7.12502
rthumb 15.0372 -19.6733
lclavicle -3.69581e-015 -6.36111e-015
lhumerus -34.911 6.27706 81.9582
lradius 24.6074
lwrist -0.747509
lhand -8.23702 14.2713
lfingers 7.12502
lthumb 17.6808 43.4874
rfemur -0.0780145 11.3485 18.0419
rtibia 14.8086
rfoot -12.5183 -15.4655
rtoes -6.03523
lfemur 4.28311 -12.1325 -17.0015
ltibia 4.86303
lfoot -7.29491 9.05799
ltoes -10.4336
126
root 0.243188 16.1238 0.223129 1.17506 1.03211 -0.46834
lowerback 9.46673 0.00459611 -1.52197
upperback -2.59395 -0.188358 -0.0381076
thorax -8.06303 -0.0175687 0.847609
lowerneck -12.1546 -8.39615 -12.3925
upperneck 27.1379 -11.7212 8.93978
head 12.2513 -5.53616 3.70433
rclavicle 7.62875e-015 7.95139e-015
rhumerus -39.7188 0.70021 -83.3878
rradius 31.4572
rwrist 4.36573
rhand -11.3428 10.0492
rfingers 7.12502
rthumb 14.6903 -19.4103
lclavicle 7.62875e-015 7.95139e-015
lhumerus -34.9388 6.35005 81.8004
lradius 24.4981
lwrist -1.05575
lhand -8.12842 14.2577
lfingers 7.12502
lthumb 17.7853 43.4644
rfemur -0.0468216 11.3138 18.0299
rtibia 14.7822
rfoot -12.6362 -15.3719
rtoes -5.54066
lfemur 4.2784 -12.1766 -17.0039
ltibia 4.87578
lfoot -7.28061 9.05341
ltoes -10.5636
127
root 0.242586 16.1251 0.219765 1.17377 1.09558 -0.552278
lowerback 9.50038 -0.0189546 -1.43404
upperback -2.60629 -0.208337 -0.0233777
thorax -8.09535 -0.0309209 0.817057
lowerneck -12.1266 -8.38618 -12.3925
upperneck 27.0749 -11.7137 8.97181
head 12.2216 -5.53031 3.7179
rclavicle 4.98029e-016 1.98785e-015
rhumerus -39.7358 0.699165 -83.3963
rradius 31.4136
rwrist 4.18824
rhand -11.4054 10.1864
rfingers 7.12502
rthumb 14.63 -19.2776
lclavicle 4.98029e-016 1.98785e-015
lhumerus -34.9657 6.28114 81.7412
lradius 24.4194
lwrist -1.1908
lhand -8.22138 14.3824
lfingers 7.12502
lthumb 17.6958 43.5971
rfemur -0.068597 11.281 18.1164
rtibia 14.8165
rfoot -12.7003 -15.3429
rtoes -5.04089
lfemur 4.38755 -12.2393 -16.905
ltibia 4.63312
lfoot -7.16649 9.07567
ltoes -10.6336
128
root 0.242474 16.1247 0.217312 1.15743 1.11715 -0.513223
lowerback 9.53764 -0.0207553 -1.48339
upperback -2.61483 -0.218605 -0.0347581
thorax -8.12586 -0.0334985 0.834652
lowerneck -12.0828 -8.36763 -12.3665
upperneck 27.0157 -11.6851 8.9484
head 12.1817 -5.51926 3.71019
rclavicle 3.5127e-015 1.53064e-014
rhumerus -39.7855 0.805108 -83.441
rradius 31.4126
rwrist 3.88162
rhand -11.6492 10.3034
rfingers 7.12502
rthumb 14.3951 -19.1774
lclavicle 3.5127e-015 1.53064e-014
lhumerus -35.0157 5.94686 81.8338
lradius 24.4698
lwrist -0.906067
lhand -8.43484 14.6334
lfingers 7.12502
lthumb 17.4904 43.8666
rfemur -0.0809512 11.2098 18.0654
rtibia 14.8625
rfoot -12.6976 -15.3089
rtoes -4.99705
lfemur 4.54945 -12.2627 -16.9535
ltibia 4.33439
lfoot -7.01431 9.08022
ltoes -10.8179
129
root 0.24277 16.1243 0.215554 1.14422 1.13686 -0.348114
lowerback 9.55213 -0.00290191 -1.65107
upperback -2.61364 -0.220332 -0.0868588
thorax -8.13292 -0.0273931 0.874306
lowerneck -12.0417 -8.36955 -12.3878
upperneck 26.9761 -11.6988 8.99806
head 12.1644 -5.52332 3.73121
rclavicle 2.68825e-015 1.19271e-014
rhumerus -39.8444 0.818389 -83.448
rradius 31.4352
rwrist 3.63078
rhand -12.1426 10.5192
rfingers 7.12502
rthumb 13.9196 -18.9949
lclavicle 2.68825e-015 1.19271e-014
lhumerus -34.9943 5.78524 81.8212
lradius 24.3547
lwrist -0.82403
lhand -8.57974 14.4337
lfingers 7.12502
lthumb 17.3509 43.6792
rfemur -0.0795968 11.179 17.8776
rtibia 14.8874
rfoot -12.7395 -15.2692
rtoes -5.10194
lfemur 4.66949 -12.2856 -17.1428
ltibia 4.12989
lfoot -6.87875 9.09646
ltoes -10.5425
130
root 0.242052 16.1243 0.212834 1.13364 1.1864 -0.349174
lowerback 9.55087 -0.0112438 -1.65799
upperback -2.60073 -0.231795 -0.0816496
thorax -8.11792 -0.0326873 0.88557
lowerneck -12.0346 -8.37231 -12.4333
upperneck 26.9407 -11.7085 9.0618
head 12.1581 -5.52524 3.7611
rclavicle 8.4532e-016 6.75868e-015
rhumerus -39.8291 0.666702 -83.304
rradius 31.4649
rwrist 3.99206
rhand -12.459 10.5568
rfingers 7.12502
rthumb 13.6147 -18.978
lclavicle 8.4532e-016 6.75868e-015
lhumerus -34.9739 5.85627 81.7219
lradius 24.2224
lwrist -0.984381
lhand -8.69435 14.0721
lfingers 7.12502
lthumb 17.2406 43.3273
rfemur -0.0919311 11.134 17.8829
rtibia 14.9323
rfoot -12.7771 -15.2719
rtoes -4.99212
lfemur 4.80832 -12.3366 -17.133
ltibia 3.84486
lfoot -6.742 9.16897
ltoes -10.4936
